<!-- icon666.com - MILLIONS vector ICONS FREE --><svg id="Layer_1" enable-background="new 0 0 100 100" viewBox="0 0 100 100" xmlns="http://www.w3.org/2000/svg"><g id="_x31_0.Linkedin" fill="#0073b1"><path d="m89.98 90v-.003h.02v-29.34c0-14.353-3.09-25.41-19.87-25.41-8.067 0-13.48 4.427-15.69 8.623h-.233v-7.283h-15.91v53.41h16.567v-26.447c0-6.963 1.32-13.697 9.943-13.697 8.497 0 8.623 7.947 8.623 14.143v26.004z"></path><path d="m11.32 36.59h16.587v53.41h-16.587z"></path><path d="m19.607 10c-5.304 0-9.607 4.303-9.607 9.607s4.303 9.697 9.607 9.697 9.607-4.393 9.607-9.697c-.004-5.304-4.307-9.607-9.607-9.607z"></path></g></svg>